<?xml version="1.0" encoding="UTF-8"?>
<!DOCTYPE svg PUBLIC "-//W3C//DTD SVG 1.1//EN" "http://www.w3.org/Graphics/SVG/1.1/DTD/svg11.dtd">
<!-- Creator: CorelDRAW -->
<svg xmlns="http://www.w3.org/2000/svg" xml:space="preserve" width="28.4473mm" height="28.4473mm" version="1.1" style="shape-rendering:geometricPrecision; text-rendering:geometricPrecision; image-rendering:optimizeQuality; fill-rule:evenodd; clip-rule:evenodd"
viewBox="0 0 9036.84 9036.84"
 xmlns:xlink="http://www.w3.org/1999/xlink"
 xmlns:xodm="http://www.corel.com/coreldraw/odm/2003">
 <defs>
  <style type="text/css">
   <![CDATA[
    .fil2 {fill:#01E0C5;fill-rule:nonzero}
    .fil1 {fill:#FDFCFD;fill-rule:nonzero}
    .fil0 {fill:url(#id0);fill-rule:nonzero}
   ]]>
  </style>
  <linearGradient id="id0" gradientUnits="userSpaceOnUse" x1="593.06" y1="8434.38" x2="8434.41" y2="593.03">
   <stop offset="0" style="stop-opacity:1; stop-color:#6F0384"/>
   <stop offset="1" style="stop-opacity:1; stop-color:#A221AF"/>
  </linearGradient>
 </defs>
 <g id="Capa_x0020_1">
  <metadata id="CorelCorpID_0Corel-Layer"/>
  <g id="YAPE_Mesa_x0020_de_x0020_trabajo_x0020_1.svg">
   <path class="fil0" d="M7005.25 9036.84l-4973.66 0c-1117.37,0 -2031.59,-914.22 -2031.59,-2031.59l0 -4973.66c0,-1117.37 914.22,-2031.59 2031.59,-2031.59l4973.75 0c1117.28,0 2031.5,914.22 2031.5,2031.59l0 4973.75c0,1117.28 -914.22,2031.5 -2031.59,2031.5z"/>
   <g>
    <path class="fil1" d="M3047.59 5643.02c-39.74,37.58 -77.48,74.08 -116.27,109.5 -53.27,48.67 -111.63,89.81 -180.25,114.65 -166.08,60.13 -314.62,-17.12 -362.33,-186.85 -21.19,-75.41 -18.55,-150.8 -5.85,-226.4 13.37,-79.64 25.32,-159.82 45.2,-237.97 20.43,-80.21 48.38,-158.52 75.19,-236.95 34.56,-100.61 70.24,-200.86 107.59,-300.55 23.63,-62.99 22.68,-127.73 19.5,-192.6 -3.4,-67.41 28.72,-105.53 95.33,-101.94 54.23,2.92 107.79,10.36 149.02,52.99 48.13,49.81 63.85,109.37 46.6,174.05 -32.75,122.65 -71.25,243.81 -105.34,366.18 -27.76,99.88 -54.58,200.04 -77.73,301.06 -8.01,34.91 -7.72,73.03 -4.07,108.99 7.15,70.81 65.15,106.29 129.64,76.43 37.45,-17.31 72.56,-44.22 101.75,-73.79 92.35,-93.46 145.05,-210.77 189.2,-332.47 15.53,-42.73 31.54,-85.29 46.89,-128.02 34.44,-96.38 69.63,-192.6 102.61,-289.56 27.95,-82.37 52.13,-166.14 79.8,-248.61 44.73,-133.2 186.03,-246.07 329.58,-238.35 74.46,4.03 91.01,35.01 77.48,97.81 -24.97,116.14 -56.2,231.2 -88.22,345.66 -142.32,509.35 -285.87,1018.32 -428.98,1527.42 -3.08,11.09 -5.43,22.4 -7.88,32.37 498.23,-80.94 995.07,-161.73 1496.41,-243.24 20.08,-105.72 41.04,-215.76 63.85,-335.97 -19.79,12.33 -31.54,19.76 -43.39,26.94 -52.83,31.8 -107.05,60.04 -168.71,70.97 -108.71,19.28 -189.39,-29.83 -222.15,-135.93 -4.51,-14.58 -8.1,-29.45 -13.47,-49.14 -20.14,35.58 -36.34,67.98 -55.91,98.1 -55.72,86.02 -126.59,152.67 -230.91,175.73 -152.86,33.8 -302.17,-45.84 -355.92,-192.95 -29.83,-81.61 -42.44,-167.19 -45.55,-253.79 -8.58,-243.14 53.46,-471.8 143.36,-694.81 42.63,-105.72 94.7,-206.07 163.98,-296.8 52.42,-68.62 110.8,-131.32 181.58,-181.96 114.11,-81.7 281.07,-94.89 414.37,27.95 8.29,-24.59 16.58,-47.27 23.63,-70.24 18.65,-60.8 68.17,-77.64 130.37,-69.19 24.49,3.3 48.86,9.88 72.21,17.98 46.6,16.01 71.83,50.92 72.3,99.4 0.29,31.74 -5.27,64.04 -12.04,95.27 -52.07,241.46 -107.05,482.25 -156.45,724.19 -15.72,76.91 -17.98,156.55 -25.13,235.04 -1.43,15.72 1.21,32.37 4.99,47.81 9.5,38.79 26.81,48.67 63.82,33.42 26.72,-11.02 52.51,-25.41 76.91,-41.23 38.6,-25.03 58.26,-60.9 67,-107.59 66.36,-351.85 135.01,-703.35 202.86,-1055.04 0.86,-4.32 2.26,-8.48 3.21,-12.8 20.9,-97.14 57.43,-97.91 138.95,-87.07 29.73,3.97 59.12,13.47 87.65,23.16 36.34,12.42 45.65,29.38 41.61,68.52 -2.38,23.25 -5.56,46.51 -0.29,72.21 20.52,-24.84 40.57,-50.06 61.75,-74.27 26.62,-30.59 50.54,-65.12 82.09,-89.61 86.22,-66.93 185.33,-84.53 290.86,-59.12 72.68,17.5 116.81,68.27 145.71,134.72 45.11,103.91 58.01,213.95 60.8,325.61 5.27,206.71 -40.66,405.31 -99.78,601.32 -33.77,112.11 -75.29,221.77 -137.33,321.64 -33.8,54.42 -70.49,108.36 -113.63,155.34 -179.42,195.4 -410.4,128.12 -536.45,11.75 -9.53,-8.77 -17.98,-18.65 -35.13,-36.44 -22.49,151.18 -43.49,292.86 -65.6,441.5 42.47,-4.89 78.05,-8.83 113.54,-13.18 284.57,-34.82 568.95,-70.68 853.7,-104.29 129.23,-15.25 258.87,-28.62 388.76,-37.55 68.14,-4.73 137.42,-1.72 205.69,3.94 110.42,9.21 159.25,114.46 135.55,207.09 -10.74,41.9 -39.17,72.59 -83.71,81.42 -78.78,15.72 -157.37,33.32 -236.92,43.49 -352.55,44.92 -705.45,87.17 -1058.06,131.13 -113.25,14.14 -226.02,30.97 -339.27,44.63 -24.37,2.92 -34.53,11.18 -40.57,35.2 -11.02,43.77 -25.13,86.98 -41.42,129.04 -16.3,42.19 -46.6,74.37 -86.31,96.13 -68.55,37.55 -145.43,2.73 -156.74,-74.75 -6.51,-44.06 -1.14,-89.81 -1.14,-139.58 -66.08,9.31 -129.32,16.36 -191.94,27.38 -421.8,74.37 -842.59,153.91 -1259.5,252.45 -35.48,8.39 -79.16,9.43 -103.27,31.26 -23.92,21.67 -29.1,64.96 -40.38,99.4 -64.2,195.91 -135.3,389.05 -230.06,572.73 -101.97,197.59 -224.72,380.28 -386.89,534.1 -99.34,94.25 -211.92,164.93 -350.1,188.19 -243.53,41.04 -449.95,-121.45 -466.91,-368.62 -8.07,-117.95 23.44,-228.66 60.93,-338.51 47.71,-140.16 119.35,-267.45 208.96,-384.16 47.46,-61.75 97.91,-123.22 156.45,-174.05 205.21,-178.21 424.91,-334.82 684.45,-426.53 15.15,-5.37 31.93,-8.93 44.44,-18.27 15.44,-11.47 33.8,-25.79 39.42,-42.63 64.87,-192.41 127.54,-385.49 190.63,-578.44 1.49,-3.21 -0.1,-7.91 -0.29,-11.4zm-335.59 1064.1c-12.33,4.42 -25.13,7.81 -36.82,13.56 -189.78,91.77 -353.09,217.06 -483.18,383.78 -81.32,104.1 -153.34,214.14 -190.35,342.54 -11.12,38.6 -16.39,80.59 -14.77,120.59 2.54,63.92 56.86,98.86 117.66,79.07 24.56,-8.01 48,-21.44 69.57,-36.06 67.38,-45.55 120.87,-105.78 170.18,-169.6 113.25,-146.48 201.08,-308.11 275.74,-476.79 36.4,-82.37 64.55,-168.43 96.57,-252.77 1.68,-1.78 3.3,-3.56 4.99,-5.37 -3.21,0.38 -6.39,0.67 -9.59,1.05zm3015.1 -2245.92c-5.27,-30.43 -9.21,-81.99 -23.83,-130.4 -25.99,-86.22 -85.36,-106.45 -156.9,-51.3 -40.76,31.45 -79.83,71 -105.05,115.22 -39.55,69.09 -72.4,143.36 -98.1,218.87 -65.34,192.32 -107.5,390.92 -148.45,589.66 -5.27,25.51 0.44,43.68 23.16,54.32 19.57,9.12 40.19,19.09 61.18,21.54 83.01,9.78 154.39,-19.85 207.57,-81.32 36.72,-42.44 68.9,-91.49 91.68,-142.7 35.39,-79.74 63.34,-163.06 90.09,-246.26 34.09,-106.1 51.3,-215.76 58.64,-347.63zm-1185.22 24.08c2.06,-87.55 -45.2,-125.86 -113.92,-108.42 -18.27,4.61 -35.86,12.23 -53.18,20.04 -99.88,44.89 -171.89,120.02 -226.21,212.93 -79.26,135.64 -125.67,282.47 -140.73,438.54 -7.24,74.56 -3.4,149.21 25.13,220.3 6.51,16.07 13.95,32.37 23.83,46.48 48.67,69.19 124.05,75.32 182.53,14.23 52.51,-54.99 85.07,-122.94 108.52,-193.65 55.66,-167.44 107.88,-336.16 159.37,-504.94 16.2,-52.89 25.89,-107.79 34.66,-145.52z"/>
    <path class="fil2" d="M4816.92 1044.31c488.29,29.67 874.23,254.45 1085.57,729.81 211.69,476.12 68.33,1038.4 -334.28,1370.87 -255.37,210.96 -549.82,303.79 -879.21,286.82 -99.49,-5.08 -197.97,-22.21 -291.91,-56.55 -45.84,-16.77 -85.64,-12.26 -124.62,13.34 -58.74,38.41 -116.93,77.67 -175.48,116.36 -36.6,24.21 -73.13,48.48 -110.04,72.21 -12.23,7.81 -25.32,14.68 -38.69,20.62 -61.18,27.19 -89.61,11.18 -92.06,-54.89 -1.4,-39.26 1.05,-79.07 5.85,-118.14 9.97,-79.83 22.21,-159.28 34.53,-238.73 10.45,-67.28 -4.8,-121.79 -51.65,-176.5 -203.15,-237.01 -295.31,-513.86 -280.15,-826.19 11.56,-238.06 95.65,-450.42 232.79,-642.2 40.38,-56.39 90.38,-106.74 140.54,-155.12 198.89,-191.55 439.59,-295.69 711.45,-330.69 48.13,-6.13 96.6,-6.51 167.38,-11.02zm-282.66 1793.82c47.81,-10.74 111.25,-17.69 169.16,-39.36 121.6,-45.55 187.58,-168.49 164.9,-292 -12.8,-70.01 -51.21,-122.94 -108.71,-163.5 -78.72,-55.34 -168.43,-86.79 -256.61,-122.08 -45.74,-18.36 -92.73,-38.31 -131.71,-67.5 -80.75,-60.42 -65.6,-162.84 27.03,-203.4 77.19,-33.7 151.75,-22.33 222.34,19.76 44.25,26.37 70.43,64.87 71.54,118.24 0.29,11.56 2.26,23.35 5.46,34.44 11.31,39.74 44.06,63.72 80.59,60.07 39.52,-3.97 70.11,-34.47 70.97,-76.34 2.16,-105.72 -35.2,-193.56 -130.37,-246.26 -129.07,-71.44 -264.9,-80.02 -401.5,-23.06 -80.56,33.61 -133.74,93.65 -144.67,183.74 -11.85,97.81 15.92,180.91 101.27,235.9 46.41,29.92 96.89,54.04 146.86,77.86 50.1,23.79 103.08,41.68 152.67,66.36 32.31,16.07 64.58,35.86 90.38,60.71 42,40.38 54.8,93.3 37.77,149.3 -16.58,54.42 -64.96,67.22 -113.73,75.13 -21.57,3.46 -43.77,4.13 -65.6,4.03 -140,-0.67 -209.76,-63.06 -226.02,-201.72 -5.85,-50 -38.31,-79.26 -84.25,-76.18 -44.25,3.02 -75.03,38.88 -71.35,88.5 10.61,143.94 89.71,275.9 257.06,316.75 39.52,9.69 80.75,12.42 136.5,20.62zm1021.72 -960.54c-0.86,-40.09 -15.25,-62.52 -42.82,-75.61 -26.46,-12.61 -60.83,-6.86 -81.16,14.61 -10.83,11.47 -19.28,25.6 -26.91,39.61 -150.99,275.55 -301.72,551.25 -452.42,826.96 -6.96,12.8 -14.58,25.51 -19.47,39.26 -11.31,31.64 1.4,66.08 29.45,84.34 27.95,18.17 64.96,15.92 89.07,-7.53 10.26,-9.97 18.33,-22.78 25.32,-35.39 154.55,-281.93 309.03,-563.96 463.04,-846.18 8.29,-15.06 12.8,-32.08 15.92,-40.09z"/>
    <path class="fil1" d="M6048.39 5020.23c5.46,-96.48 1.21,-175.45 16.36,-250.58 20.81,-103.27 50.73,-205.6 86.6,-304.8 61.41,-169.83 142.73,-331.17 258.87,-470.37 56.58,-67.79 123.7,-129.74 195.62,-180.94 77.38,-55.05 171.8,-63.25 266.21,-51.59 56.96,7.08 110.42,22.43 156.36,59.02 56.1,44.82 86.88,102.42 97.72,173.42 12.04,78.88 -1.68,154.01 -26.75,227.51 -101.46,297.75 -304.04,485.62 -611.1,558.97 -4.26,1.02 -8.67,3.65 -12.71,3.11 -58.64,-8.39 -72.59,31.61 -85.68,75.95 -19.38,65.69 -28.15,131.42 -11.66,198.89 17.88,73.45 75.38,112.2 150.8,100.64 85.39,-13.09 156.93,-56.29 221.03,-110.33 52.32,-44.06 101.27,-92.82 147.02,-143.75 67.98,-75.67 107.59,-71.06 149.21,22.68 2.92,6.7 5.46,13.56 8.67,20.14 42.63,88.5 28.97,161.25 -44.73,232.25 -118.52,114.17 -238.73,224.02 -394.23,284.76 -56.58,22.11 -116.74,41.49 -176.78,47.33 -166.33,16.39 -295.5,-71.35 -351.31,-230.63 -10.55,-30.21 -20.33,-61.47 -24.3,-93.08 -7.78,-62.04 -11.47,-124.84 -15.22,-168.62zm425.2 -525.52c2.83,3.75 5.65,7.62 8.45,11.37 39.07,-14.58 79.93,-25.7 116.74,-44.54 106.93,-54.58 195.33,-128.66 238.16,-245.78 13.18,-36.06 21.47,-73.13 10.36,-111.63 -11.21,-38.69 -41.61,-60.45 -79.83,-48.86 -28.24,8.58 -58.07,23.54 -78.4,44.35 -109.31,111.06 -170.4,248.96 -215.48,395.09z"/>
   </g>
  </g>
 </g>
</svg>
